<svg xmlns="http://www.w3.org/2000/svg" width="55" height="30" viewBox="0 0 55 30">
  <g fill="#48384C">
    <rect width="4.519" height="4.5" x="21.09"/>
    <rect width="4.519" height="15" x="21.09" y="7.5"/>
    <polygon points="32.388 0 28.622 0 28.622 22.5 32.388 22.5 36.154 22.5 36.154 18.68 32.388 18.68"/>
    <path d="M50.2548351,7.5 L50.2548351,14.855664 C50.2205646,17.0290928 48.3012927,18.7744178 45.9455209,18.7744178 C43.589749,18.7744178 41.6704772,17.0290928 41.6362066,14.855664 L41.6362066,7.5 L37.6602564,7.5 L37.6602725,14.855664 C37.6543727,17.6208632 39.2705481,20.1725454 41.884493,21.5250323 C44.498438,22.8775191 47.7009082,22.8190627 50.2548351,21.3722437 L50.2548351,22.5 L54.2307692,22.5 L54.2307692,7.5 L50.2548351,7.5 Z"/>
    <polygon points="15.199 7.5 9.796 18.211 4.387 7.5 0 7.5 7.604 22.556 7.604 22.557 3.85 30 8.236 30 9.799 26.901 11.989 22.557 11.992 22.557 11.99 22.556 19.583 7.5"/>
  </g>
</svg>
